<mxfile host="app.diagrams.net" modified="2022-05-25T04:46:36.549Z" agent="5.0 (X11; Linux x86_64) AppleWebKit/537.36 (KHTML, like Gecko) Chrome/100.0.4896.75 Safari/537.36" etag="fbSA76tb4hn8608iJxb0" version="18.1.2" type="github">
  <diagram name="Page-1" id="c7558073-3199-34d8-9f00-42111426c3f3">
    <mxGraphModel dx="1422" dy="790" grid="1" gridSize="10" guides="1" tooltips="1" connect="1" arrows="1" fold="1" page="1" pageScale="1" pageWidth="826" pageHeight="1169" background="none" math="0" shadow="0">
      <root>
        <mxCell id="0" />
        <mxCell id="1" parent="0" />
        <mxCell id="IIWS1Mp0HSKaRVgvxtfI-100" style="edgeStyle=orthogonalEdgeStyle;rounded=0;orthogonalLoop=1;jettySize=auto;html=1;exitX=0.5;exitY=0;exitDx=0;exitDy=0;entryX=0.25;entryY=1;entryDx=0;entryDy=0;strokeWidth=3;" edge="1" parent="1" source="IIWS1Mp0HSKaRVgvxtfI-96" target="IIWS1Mp0HSKaRVgvxtfI-108">
          <mxGeometry relative="1" as="geometry">
            <mxPoint x="200" y="480" as="targetPoint" />
          </mxGeometry>
        </mxCell>
        <mxCell id="IIWS1Mp0HSKaRVgvxtfI-122" style="edgeStyle=orthogonalEdgeStyle;rounded=0;orthogonalLoop=1;jettySize=auto;html=1;exitX=0.5;exitY=1;exitDx=0;exitDy=0;entryX=1;entryY=0;entryDx=0;entryDy=35;entryPerimeter=0;strokeWidth=3;" edge="1" parent="1" source="IIWS1Mp0HSKaRVgvxtfI-96" target="IIWS1Mp0HSKaRVgvxtfI-120">
          <mxGeometry relative="1" as="geometry" />
        </mxCell>
        <mxCell id="IIWS1Mp0HSKaRVgvxtfI-96" value="&lt;b&gt;PH Sensor B&lt;/b&gt;" style="rounded=1;whiteSpace=wrap;html=1;fillColor=#fff2cc;strokeColor=#d6b656;perimeterSpacing=1;strokeWidth=3;" vertex="1" parent="1">
          <mxGeometry x="190" y="560" width="80" height="40" as="geometry" />
        </mxCell>
        <mxCell id="IIWS1Mp0HSKaRVgvxtfI-101" style="edgeStyle=orthogonalEdgeStyle;rounded=0;orthogonalLoop=1;jettySize=auto;html=1;exitX=0.5;exitY=0;exitDx=0;exitDy=0;entryX=0.75;entryY=1;entryDx=0;entryDy=0;strokeWidth=3;" edge="1" parent="1" source="IIWS1Mp0HSKaRVgvxtfI-97" target="IIWS1Mp0HSKaRVgvxtfI-108">
          <mxGeometry relative="1" as="geometry">
            <mxPoint x="280" y="480" as="targetPoint" />
          </mxGeometry>
        </mxCell>
        <mxCell id="IIWS1Mp0HSKaRVgvxtfI-123" style="edgeStyle=orthogonalEdgeStyle;rounded=0;orthogonalLoop=1;jettySize=auto;html=1;exitX=0.5;exitY=1;exitDx=0;exitDy=0;entryX=1;entryY=0;entryDx=0;entryDy=75;entryPerimeter=0;strokeWidth=3;" edge="1" parent="1" source="IIWS1Mp0HSKaRVgvxtfI-97" target="IIWS1Mp0HSKaRVgvxtfI-120">
          <mxGeometry relative="1" as="geometry" />
        </mxCell>
        <mxCell id="IIWS1Mp0HSKaRVgvxtfI-97" value="&lt;b&gt;PH Sensor C&lt;/b&gt;" style="rounded=1;whiteSpace=wrap;html=1;fillColor=#fff2cc;strokeColor=#d6b656;perimeterSpacing=1;strokeWidth=3;" vertex="1" parent="1">
          <mxGeometry x="290" y="560" width="80" height="40" as="geometry" />
        </mxCell>
        <mxCell id="IIWS1Mp0HSKaRVgvxtfI-108" value="&lt;b&gt;HRN IOT PH READER&lt;/b&gt;" style="rounded=1;whiteSpace=wrap;html=1;strokeColor=#b85450;strokeWidth=3;fillColor=#f8cecc;" vertex="1" parent="1">
          <mxGeometry x="220" y="400" width="120" height="80" as="geometry" />
        </mxCell>
        <mxCell id="IIWS1Mp0HSKaRVgvxtfI-112" style="edgeStyle=orthogonalEdgeStyle;rounded=0;orthogonalLoop=1;jettySize=auto;html=1;exitX=1;exitY=0.5;exitDx=0;exitDy=0;entryX=0;entryY=0.5;entryDx=0;entryDy=0;dashed=1;strokeWidth=3;" edge="1" parent="1" source="IIWS1Mp0HSKaRVgvxtfI-109" target="IIWS1Mp0HSKaRVgvxtfI-108">
          <mxGeometry relative="1" as="geometry" />
        </mxCell>
        <mxCell id="IIWS1Mp0HSKaRVgvxtfI-109" value="&lt;b&gt;Current Vendor PH Reader&lt;/b&gt;" style="rounded=1;whiteSpace=wrap;html=1;strokeColor=#82b366;strokeWidth=3;fillColor=#d5e8d4;" vertex="1" parent="1">
          <mxGeometry x="40" y="400" width="120" height="80" as="geometry" />
        </mxCell>
        <mxCell id="IIWS1Mp0HSKaRVgvxtfI-117" style="edgeStyle=orthogonalEdgeStyle;rounded=0;orthogonalLoop=1;jettySize=auto;html=1;exitX=0.5;exitY=0;exitDx=0;exitDy=0;entryX=0.5;entryY=1;entryDx=0;entryDy=0;strokeWidth=3;" edge="1" parent="1" source="IIWS1Mp0HSKaRVgvxtfI-116" target="IIWS1Mp0HSKaRVgvxtfI-109">
          <mxGeometry relative="1" as="geometry" />
        </mxCell>
        <mxCell id="IIWS1Mp0HSKaRVgvxtfI-121" style="edgeStyle=orthogonalEdgeStyle;rounded=0;orthogonalLoop=1;jettySize=auto;html=1;exitX=0.5;exitY=1;exitDx=0;exitDy=0;entryX=0;entryY=0;entryDx=0;entryDy=35;entryPerimeter=0;strokeWidth=3;" edge="1" parent="1" source="IIWS1Mp0HSKaRVgvxtfI-116" target="IIWS1Mp0HSKaRVgvxtfI-120">
          <mxGeometry relative="1" as="geometry" />
        </mxCell>
        <mxCell id="IIWS1Mp0HSKaRVgvxtfI-116" value="&lt;b&gt;PH Sensor A&lt;/b&gt;" style="rounded=1;whiteSpace=wrap;html=1;fillColor=#fff2cc;strokeColor=#d6b656;perimeterSpacing=1;strokeWidth=3;" vertex="1" parent="1">
          <mxGeometry x="60" y="560" width="80" height="40" as="geometry" />
        </mxCell>
        <mxCell id="IIWS1Mp0HSKaRVgvxtfI-120" value="&lt;b&gt;Tank&lt;/b&gt;" style="shape=cylinder3;whiteSpace=wrap;html=1;boundedLbl=1;backgroundOutline=1;size=15;strokeColor=#6c8ebf;strokeWidth=3;fillColor=#dae8fc;" vertex="1" parent="1">
          <mxGeometry x="120" y="660" width="90" height="110" as="geometry" />
        </mxCell>
      </root>
    </mxGraphModel>
  </diagram>
</mxfile>
